0
SECTION
2
HEADER
9
$INSUNITS
70
4
9
$ACADVER
1
AC1014
9
$HANDSEED
5
FFFF
0
ENDSEC
0
SECTION
2
TABLES
0
TABLE
2
VPORT
5
8
100
AcDbSymbolTable
0
ENDTAB
0
TABLE
2
LTYPE
5
5
100
AcDbSymbolTable
0
LTYPE
5
14
100
AcDbSymbolTableRecord
100
AcDbLinetypeTableRecord
2
BYBLOCK
70
0
0
LTYPE
5
15
100
AcDbSymbolTableRecord
100
AcDbLinetypeTableRecord
2
BYLAYER
70
0
0
ENDTAB
0
TABLE
2
LAYER
5
2
100
AcDbSymbolTable
70
2
0
LAYER
5
50
100
AcDbSymbolTableRecord
100
AcDbLayerTableRecord
2
0
70
0
6
CONTINUOUS
0
ENDTAB
0
TABLE
2
STYLE
5
3
100
AcDbSymbolTable
70
1
0
STYLE
5
11
100
AcDbSymbolTableRecord
100
AcDbTextStyleTableRecord
2
STANDARD
70
0
0
ENDTAB
0
TABLE
2
VIEW
5
6
100
AcDbSymbolTable
70
0
0
ENDTAB
0
TABLE
2
UCS
5
7
100
AcDbSymbolTable
70
0
0
ENDTAB
0
TABLE
2
APPID
5
9
100
AcDbSymbolTable
70
2
0
APPID
5
12
100
AcDbSymbolTableRecord
100
AcDbRegAppTableRecord
2
ACAD
70
0
0
ENDTAB
0
TABLE
2
DIMSTYLE
5
A
100
AcDbSymbolTable
70
1
0
ENDTAB
0
TABLE
2
BLOCK_RECORD
5
1
100
AcDbSymbolTable
70
1
0
BLOCK_RECORD
5
1F
100
AcDbSymbolTableRecord
100
AcDbBlockTableRecord
2
*MODEL_SPACE
0
BLOCK_RECORD
5
1B
100
AcDbSymbolTableRecord
100
AcDbBlockTableRecord
2
*PAPER_SPACE
0
ENDTAB
0
ENDSEC
0
SECTION
2
BLOCKS
0
BLOCK
5
20
100
AcDbEntity
100
AcDbBlockBegin
2
*MODEL_SPACE
0
ENDBLK
5
21
100
AcDbEntity
100
AcDbBlockEnd
0
BLOCK
5
1C
100
AcDbEntity
100
AcDbBlockBegin
2
*PAPER_SPACE
0
ENDBLK
5
1D
100
AcDbEntity
100
AcDbBlockEnd
0
ENDSEC
0
SECTION
2
ENTITIES
0
CIRCLE
5
100
100
AcDbEntity
8
0
100
AcDbCircle
10
-75.295511555400481
20
50.257300999671486
30
0
40
1.2250000000000001
210
0
220
0
230
1
0
CIRCLE
5
101
100
AcDbEntity
8
0
100
AcDbCircle
10
-74.75015097120405
20
-34.034544852921236
30
0
40
1.2250000000000001
210
0
220
0
230
1
0
CIRCLE
5
102
100
AcDbEntity
8
0
100
AcDbCircle
10
51.634868002249242
20
-58.154219832368071
30
0
40
1.2250000000000001
210
0
220
0
230
1
0
CIRCLE
5
103
100
AcDbEntity
8
0
100
AcDbCircle
10
75.750150971204164
20
49.155318120299256
30
0
40
1.2250000000000001
210
0
220
0
230
1
0
CIRCLE
5
104
100
AcDbEntity
8
0
100
AcDbCircle
10
38.440544784827644
20
57.655318120299256
30
0
40
1.2250000000000001
210
0
220
0
230
1
0
SPLINE
5
105
100
AcDbEntity
8
0
100
AcDbSpline
70
4
71
5
72
46
73
40
74
0
42
0.000000001
43
0.0000000001
44
0.0000000001
40
0
40
0
40
0
40
0
40
0
40
0
40
0.028571428571428571
40
0.057142857142857141
40
0.085714285714285715
40
0.11428571428571428
40
0.14285714285714285
40
0.17142857142857143
40
0.20000000000000001
40
0.22857142857142859
40
0.25714285714285717
40
0.28571428571428575
40
0.31428571428571433
40
0.34285714285714292
40
0.3714285714285715
40
0.40000000000000008
40
0.42857142857142866
40
0.45714285714285724
40
0.48571428571428582
40
0.51428571428571435
40
0.54285714285714293
40
0.57142857142857151
40
0.60000000000000009
40
0.62857142857142867
40
0.65714285714285725
40
0.68571428571428583
40
0.71428571428571441
40
0.74285714285714299
40
0.77142857142857157
40
0.80000000000000016
40
0.82857142857142874
40
0.85714285714285732
40
0.8857142857142859
40
0.91428571428571448
40
0.94285714285714306
40
0.97142857142857164
40
1
40
1
40
1
40
1
40
1
40
1
41
1
41
1
41
1
41
1
41
1
41
1
41
1
41
1
41
1
41
1
41
1
41
1
41
1
41
1
41
1
41
1
41
1
41
1
41
1
41
1
41
1
41
1
41
1
41
1
41
1
41
1
41
1
41
1
41
1
41
1
41
1
41
1
41
1
41
1
41
1
41
1
41
1
41
1
41
1
41
1
10
-71.250150971204164
20
46.806308965466258
30
0
10
-71.212981925066913
20
46.913843137789314
30
0
10
-71.12112098099891
20
47.123412987475049
30
0
10
-70.930754655762087
20
47.421270749540014
30
0
10
-70.571698372296851
20
47.785389783707757
30
0
10
-69.95218428186223
20
48.18670530852156
30
0
10
-69.178571973369102
20
48.538517099456264
30
0
10
-68.28247552200601
20
48.849189767874428
30
0
10
-67.299302342435666
20
49.128689935778155
30
0
10
-66.260298992743557
20
49.386854510481164
30
0
10
-65.181220401946931
20
49.63104497209028
30
0
10
-64.059711456748758
20
49.865266774007758
30
0
10
-62.884567866876466
20
50.091260455999667
30
0
10
-61.642395354881209
20
50.309129609397829
30
0
10
-60.324712080968979
20
50.51811427479889
30
0
10
-58.936391177807536
20
50.717379190711668
30
0
10
-57.493385101068696
20
50.906234782098814
30
0
10
-56.017204560649731
20
51.084165008071608
30
0
10
-54.53046034675036
20
51.250925886247323
30
0
10
-53.052149490989116
20
51.406611439371879
30
0
10
-51.592633589190982
20
51.551749990190594
30
0
10
-50.149923757472159
20
51.687351476467704
30
0
10
-48.714045819598439
20
51.814693797730598
30
0
10
-47.270315862356455
20
51.935145940508498
30
0
10
-45.803137873257796
20
52.049970912923349
30
0
10
-44.299265627017647
20
52.160155679831981
30
0
10
-42.752049921823584
20
52.266185039353289
30
0
10
-41.162374246343362
20
52.36800989823908
30
0
10
-39.536216010256304
20
52.465215142185727
30
0
10
-37.883161124911794
20
52.557131129957043
30
0
10
-36.214522793594391
20
52.642969740135555
30
0
10
-34.541724085527285
20
52.721943578524048
30
0
10
-32.87438553110605
20
52.793407433296821
30
0
10
-31.21912859127605
20
52.856945388977024
30
0
10
-29.580331661068552
20
52.912306927388357
30
0
10
-27.960525267456688
20
52.959371646760147
30
0
10
-26.680838868045637
20
52.990357836254027
30
0
10
-25.73031807053189
20
53.009852978973797
30
0
10
-25.100740689334522
20
53.021187717660219
30
0
10
-24.786977776922427
20
53.026439581886265
30
0
0
LINE
5
106
100
AcDbEntity
8
0
100
AcDbLine
10
-24.786977776922427
20
53.026439581886265
30
0
11
-13.050113408661437
21
53.155318120299242
31
0
0
LINE
5
107
100
AcDbEntity
8
0
100
AcDbLine
10
-69.75038466872995
20
-30.534544852921243
30
0
11
-69.750150971204164
21
-30.534544852921243
31
0
0
LINE
5
108
100
AcDbEntity
8
0
100
AcDbLine
10
-71.250150971204164
20
-29.034544852921243
30
0
11
-71.250150971204164
21
-29.034778550447022
31
0
0
LINE
5
109
100
AcDbEntity
8
0
100
AcDbLine
10
-27.616248826536271
20
-30.534544852921243
30
0
11
-27.616794120763103
21
-30.534544852921243
31
0
0
LINE
5
110
100
AcDbEntity
8
0
100
AcDbLine
10
-24.116794120763103
20
-34.034544852921243
30
0
11
-24.116794120763103
21
-34.03399955869439
31
0
0
LINE
5
111
100
AcDbEntity
8
0
100
AcDbLine
10
-22.616794120763103
20
-45.254251311656084
30
0
11
-22.617027818288904
21
-45.254251311656084
31
0
0
LINE
5
112
100
AcDbEntity
8
0
100
AcDbLine
10
-24.116794120763103
20
-43.754485009181863
30
0
11
-24.116794120763103
21
-43.754251311656077
31
0
0
LINE
5
113
100
AcDbEntity
8
0
100
AcDbLine
10
36.309929121658435
20
-45.254251311656084
30
0
11
49.734203613653477
21
-53.013139572484889
31
0
0
LINE
5
114
100
AcDbEntity
8
0
100
AcDbLine
10
50.792439392546285
20
-52.660400122534512
30
0
11
64.195448861821063
21
-29.734468106966322
31
0
0
ARC
5
115
100
AcDbEntity
8
0
100
AcDbCircle
10
-22.616794120763089
20
-43.75425131165607
30
0
40
1.5000000000000124
210
0
220
0
230
1
100
AcDbArc
50
180
51
269.99999999999943
0
ARC
5
116
100
AcDbEntity
8
0
100
AcDbCircle
10
-27.616794120763103
20
-34.034544852921243
30
0
40
3.5000000000000009
210
0
220
-0
230
1
100
AcDbArc
50
0
51
90
0
ARC
5
117
100
AcDbEntity
8
0
100
AcDbCircle
10
-69.75015097120415
20
-29.034544852921229
30
0
40
1.5000000000000124
210
0
220
0
230
1
100
AcDbArc
50
180
51
269.99999999999943
0
LINE
5
118
100
AcDbEntity
8
0
100
AcDbLine
10
-69.750150971204164
20
-30.534544852921243
30
0
11
-27.616794120763103
21
-30.534544852921243
31
0
0
LINE
5
119
100
AcDbEntity
8
0
100
AcDbLine
10
-24.116794120763103
20
-34.034544852921243
30
0
11
-24.116794120763103
21
-43.754251311656077
31
0
0
LINE
5
120
100
AcDbEntity
8
0
100
AcDbLine
10
-22.616794120763103
20
-45.254251311656084
30
0
11
36.309929121658435
21
-45.254251311656084
31
0
0
LINE
5
121
100
AcDbEntity
8
0
100
AcDbLine
10
-71.250150971204164
20
46.806308965466258
30
0
11
-71.250150971204164
21
-29.034544852921243
31
0
0
LINE
5
122
100
AcDbEntity
8
0
100
AcDbLine
10
70.199617341454385
20
53.155318120299242
30
0
11
70.200150971204152
21
53.155318120299242
31
0
0
LINE
5
123
100
AcDbEntity
8
0
100
AcDbLine
10
71.250150971204164
20
52.105318120299309
30
0
11
71.250150971204164
21
52.10548247138788
31
0
0
ARC
5
124
100
AcDbEntity
8
0
100
AcDbCircle
10
70.200150971204152
20
52.105318120299238
30
0
40
1.0500000000000043
210
0
220
-0
230
1
100
AcDbArc
50
0
51
90
0
LINE
5
125
100
AcDbEntity
8
0
100
AcDbLine
10
70.200150971204152
20
53.155318120299242
30
0
11
-13.050113408661437
21
53.155318120299242
31
0
0
LINE
5
126
100
AcDbEntity
8
0
100
AcDbLine
10
71.250150971204164
20
1.6579409655853516
30
0
11
71.250150971204164
21
52.105318120299309
31
0
0
LINE
5
127
100
AcDbEntity
8
0
100
AcDbLine
10
49.734203613653477
20
-53.013139572484889
30
0
11
49.855153473857968
21
-53.083045506772002
31
0
0
LINE
5
128
100
AcDbEntity
8
0
100
AcDbLine
10
50.674871415571097
20
-52.863813903134236
30
0
11
50.792439392546285
21
-52.660400122534512
31
0
0
ARC
5
129
100
AcDbEntity
8
0
100
AcDbCircle
10
50.155396642895653
20
-52.563570734096558
30
0
40
0.59999999999999842
210
0
220
0
230
1
100
AcDbArc
50
239.97318315234875
51
329.97318315234935
0
SPLINE
5
130
100
AcDbEntity
8
0
100
AcDbSpline
70
4
71
5
72
41
73
35
74
0
42
0.000000001
43
0.0000000001
44
0.0000000001
40
0
40
0
40
0
40
0
40
0
40
0
40
0.033333333333333333
40
0.066666666666666666
40
0.10000000000000001
40
0.13333333333333333
40
0.16666666666666666
40
0.19999999999999998
40
0.23333333333333331
40
0.26666666666666666
40
0.29999999999999999
40
0.33333333333333331
40
0.36666666666666664
40
0.39999999999999997
40
0.43333333333333329
40
0.46666666666666662
40
0.49999999999999994
40
0.53333333333333333
40
0.56666666666666665
40
0.59999999999999998
40
0.6333333333333333
40
0.66666666666666663
40
0.69999999999999996
40
0.73333333333333328
40
0.76666666666666661
40
0.79999999999999993
40
0.83333333333333326
40
0.86666666666666659
40
0.89999999999999991
40
0.93333333333333324
40
0.96666666666666656
40
1
40
1
40
1
40
1
40
1
40
1
41
1
41
1
41
1
41
1
41
1
41
1
41
1
41
1
41
1
41
1
41
1
41
1
41
1
41
1
41
1
41
1
41
1
41
1
41
1
41
1
41
1
41
1
41
1
41
1
41
1
41
1
41
1
41
1
41
1
41
1
41
1
41
1
41
1
41
1
41
1
10
64.195448861821063
20
-29.734468106966322
30
0
10
64.278985138474155
20
-29.568259188368494
30
0
10
64.444542035878385
20
-29.23599460725773
30
0
10
64.688330336855941
20
-28.738057902022128
30
0
10
65.004271518313303
20
-28.075060848438227
30
0
10
65.384002850482446
20
-27.247443108891062
30
0
10
65.748683106885053
20
-26.419663395379725
30
0
10
66.098707018606234
20
-25.589234843314923
30
0
10
66.4349058170897
20
-24.751718874940408
30
0
10
66.758382292037211
20
-23.901753568453227
30
0
10
67.070070341041514
20
-23.035506499370623
30
0
10
67.370403887204176
20
-22.152555113186359
30
0
10
67.658880089816719
20
-21.258399671814932
30
0
10
67.933837679686363
20
-20.365677505334784
30
0
10
68.193440177889158
20
-19.487937762953777
30
0
10
68.436590761521046
20
-18.633858115109454
30
0
10
68.663755024889099
20
-17.802028011792789
30
0
10
68.878151104739601
20
-16.973502979265255
30
0
10
69.084954474423924
20
-16.11646393497789
30
0
10
69.289676969959316
20
-15.195899972133597
30
0
10
69.496905919240405
20
-14.18113362908268
30
0
10
69.708695751500855
20
-13.055394118223816
30
0
10
69.923707740029727
20
-11.821062270121047
30
0
10
70.138304616815958
20
-10.493641577942839
30
0
10
70.347273015280479
20
-9.0978864858572646
30
0
10
70.544687283604716
20
-7.6631375255336023
30
0
10
70.724688051722538
20
-6.2191507604517327
30
0
10
70.882341973057436
20
-4.7915165089117178
30
0
10
71.014347393575278
20
-3.3978857931021578
30
0
10
71.11864421328994
20
-2.0497728382930736
30
0
10
71.194142781440746
20
-0.75377049472780733
30
0
10
71.231165152131155
20
0.23889193410104423
30
0
10
71.245768106766548
20
0.95819608459614847
30
0
10
71.249663356987952
20
1.4265554517676229
30
0
10
71.250150971204164
20
1.6579409655853516
30
0
0
LINE
5
131
100
AcDbEntity
8
0
100
AcDbLine
10
-72.250150971204249
20
-39.534544852921243
30
0
11
-33.116794120763103
21
-39.534544852921243
31
0
0
LINE
5
132
100
AcDbEntity
8
0
100
AcDbLine
10
-33.116794120763103
20
-39.534544852921243
30
0
11
-33.116794120763103
21
-46.254251311656091
31
0
0
LINE
5
133
100
AcDbEntity
8
0
100
AcDbLine
10
-25.1167941207631
20
-54.254251311656091
30
0
11
33.896128840227256
21
-54.254251311656091
31
0
0
LINE
5
134
100
AcDbEntity
8
0
100
AcDbLine
10
33.896128840227256
20
-54.254251311656091
30
0
11
46.728888862261762
21
-61.671259295839498
31
0
0
LINE
5
135
100
AcDbEntity
8
0
100
AcDbLine
10
57.638484874388212
20
-58.782536919654405
30
0
11
72.108935520774381
21
-34.030740055361413
31
0
0
SPLINE
5
136
100
AcDbEntity
8
0
100
AcDbSpline
70
0
71
3
72
29
73
25
74
0
42
0.000000001
43
0.0000000001
44
0.0000000001
40
-0.010213836873059257
40
-0.010213836873059257
40
-0.010213836873059257
40
-0.010213836873059257
40
0
40
0
40
0
40
0.25
40
0.25
40
0.25
40
0.39993388100082222
40
0.39993388100082222
40
0.39993388100082222
40
0.56443599066817429
40
0.56443599066817429
40
0.56443599066817429
40
0.71221888744263706
40
0.71221888744263706
40
0.71221888744263706
40
0.88881505188668453
40
0.88881505188668453
40
0.88881505188668453
40
1
40
1
40
1
40
1.0002732271388703
40
1.0002732271388703
40
1.0002732271388703
40
1.0002732271388703
10
72.108935520774665
20
-34.030740055360837
30
0
10
72.151596815910494
20
-33.945858516290635
30
0
10
72.194258111046395
20
-33.860976977220318
30
0
10
72.236919406182267
20
-33.776095438150001
30
0
10
73.420761918500887
20
-31.420649497223962
30
0
10
74.465636666669738
20
-29.057895946267514
30
0
10
75.381080711836987
20
-26.514172308228741
30
0
10
75.930105025961041
20
-24.988610879250004
30
0
10
76.415546752637908
20
-23.438713951795126
30
0
10
76.831785279405722
20
-22.005371177674299
30
0
10
77.288467353671265
20
-20.432758579071329
30
0
10
77.684651964528342
20
-18.955641091123564
30
0
10
78.07736780220786
20
-17.119821253310647
30
0
10
78.430169867900815
20
-15.470585422009561
30
0
10
78.781125827475378
20
-13.514679240984595
30
0
10
79.112932089980262
20
-11.318469554177142
30
0
10
79.509430700954852
20
-8.6940643254925263
30
0
10
79.857816920640985
20
-5.8305539128337438
30
0
10
80.054980393545506
20
-3.1756608164057654
30
0
10
80.179114519412522
20
-1.5041400781041698
30
0
10
80.246890127463374
20
0.10110342115802806
30
0
10
80.250130986788548
20
1.6389747039177605
30
0
10
80.25013764826042
20
1.6421357440173754
30
0
10
80.250144309732292
20
1.6452967841139814
30
0
10
80.250150971204135
20
1.6484578242050794
30
0
0
LINE
5
137
100
AcDbEntity
8
0
100
AcDbLine
10
80.250150971204135
20
1.6484578242050794
30
0
11
80.250150971204164
21
51.655318120299242
31
0
0
LINE
5
138
100
AcDbEntity
8
0
100
AcDbLine
10
-24.911702368184166
20
62.025612594177503
30
0
11
-13.099524897433446
21
62.155318120299242
31
0
0
SPLINE
5
139
100
AcDbEntity
8
0
100
AcDbSpline
70
4
71
3
72
18
73
14
74
0
42
0.000000001
43
0.0000000001
44
0.0000000001
40
0
40
0
40
0
40
0
40
0.090909090909090912
40
0.18181818181818182
40
0.27272727272727271
40
0.36363636363636365
40
0.45454545454545459
40
0.54545454545454541
40
0.63636363636363635
40
0.72727272727272729
40
0.81818181818181823
40
0.90909090909090917
40
1
40
1
40
1
40
1
41
1
41
1
41
1
41
1
41
1
41
1
41
1
41
1
41
1
41
1
41
1
41
1
41
1
41
1
10
-80.250150971203809
20
48.328025181767906
30
0
10
-80.200001187622547
20
50.50000075250864
30
0
10
-78.699998240917935
20
53.199998810887323
30
0
10
-76.140593512775453
20
54.980716940320903
30
0
10
-71.074915251976478
20
57.413233775929513
30
0
10
-65.475698551448886
20
58.754986049820687
30
0
10
-56.462957103981111
20
60.105544906725832
30
0
10
-48.4168959628539
20
60.833227487803256
30
0
10
-39.585487685812453
20
61.498328018880805
30
0
10
-30.660722252683875
20
61.879993925500642
30
0
10
-24.937601571005359
20
62.025179085218994
30
0
10
-24.928967943659707
20
62.025323597574349
30
0
10
-24.920334323420093
20
62.025468109810724
30
0
10
-24.911702368184166
20
62.025612594177503
30
0
0
LINE
5
140
100
AcDbEntity
8
0
100
AcDbLine
10
-80.250150971203809
20
48.328025181767906
30
0
11
-80.250150971204249
21
-31.534544852921215
31
0
0
ARC
5
141
100
AcDbEntity
8
0
100
AcDbCircle
10
-72.250150971204249
20
-31.534544852921236
30
0
40
8.0000000000000071
210
0
220
0
230
1
100
AcDbArc
50
180
51
270
0
ARC
5
142
100
AcDbEntity
8
0
100
AcDbCircle
10
-25.1167941207631
20
-46.254251311656091
30
0
40
8.0000000000000036
210
0
220
0
230
1
100
AcDbArc
50
180
51
270
0
ARC
5
143
100
AcDbEntity
8
0
100
AcDbCircle
10
50.732131116097491
20
-54.744928993500146
30
0
40
8.0000000000000053
210
0
220
0
230
1
100
AcDbArc
50
239.97318315234958
51
329.68849452296155
0
ARC
5
144
100
AcDbEntity
8
0
100
AcDbCircle
10
78.25015097120415
20
51.655318120299242
30
0
40
2.0000000000000195
210
0
220
-0
230
1
100
AcDbArc
50
0
51
90
0
CIRCLE
5
145
100
AcDbEntity
8
0
100
AcDbCircle
10
75.750150971204135
20
11.15794096558535
30
0
40
1.2250000000000001
210
0
220
0
230
1
0
LINE
5
146
100
AcDbEntity
8
0
100
AcDbLine
10
78.25015097120415
20
53.655318120299256
30
0
11
44.94054478482763
21
53.655318120299256
31
0
0
LINE
5
147
100
AcDbEntity
8
0
100
AcDbLine
10
-13.099524897433446
20
62.155318120299242
30
0
11
40.940544784827622
21
62.155318120299256
31
0
0
LINE
5
148
100
AcDbEntity
8
0
100
AcDbLine
10
42.940544784827644
20
60.155318120299285
30
0
11
42.940544784827644
21
55.65531812029927
31
0
0
ARC
5
149
100
AcDbEntity
8
0
100
AcDbCircle
10
40.940544784827637
20
60.155318120299277
30
0
40
2.0000000000000107
210
-0
220
0
230
1
100
AcDbArc
50
0
51
90.000000000000398
0
ARC
5
150
100
AcDbEntity
8
0
100
AcDbCircle
10
44.940544784827658
20
55.65531812029927
30
0
40
2.0000000000000107
210
0
220
0
230
1
100
AcDbArc
50
180
51
269.9999999999992
0
ARC
5
151
100
AcDbEntity
8
0
100
AcDbCircle
10
50.155396642895653
20
-52.563570734096558
30
0
40
1.0999999999999983
210
0
220
0
230
1
100
AcDbArc
50
239.97318315234935
51
329.97318315234935
0
LINE
5
152
100
AcDbEntity
8
0
100
AcDbLine
10
51.107767059467307
20
-53.114016543998972
30
0
11
51.224713437486656
21
-52.911678241576865
31
0
0
LINE
5
153
100
AcDbEntity
8
0
100
AcDbLine
10
51.224713437486656
20
-52.911678241576865
30
0
11
64.635087009541081
21
-29.97314988187636
31
0
0
SPLINE
5
154
100
AcDbEntity
8
0
100
AcDbSpline
70
0
71
3
72
29
73
25
74
0
42
0.000000001
43
0.0000000001
44
0.0000000001
40
-0.00056743538173053762
40
-0.00056743538173053762
40
-0.00056743538173053762
40
-0.00056743538173053762
40
0
40
0
40
0
40
0.26991895555342449
40
0.26991895555342449
40
0.26991895555342449
40
0.4405428261381048
40
0.4405428261381048
40
0.4405428261381048
40
0.58656931638865895
40
0.58656931638865895
40
0.58656931638865895
40
0.72665175545945848
40
0.72665175545945848
40
0.72665175545945848
40
0.8881646330700822
40
0.8881646330700822
40
0.8881646330700822
40
1
40
1
40
1
40
1.0000151792682455
40
1.0000151792682455
40
1.0000151792682455
40
1.0000151792682455
10
64.635087009542389
20
-29.973149881873713
30
0
10
64.637457081493551
20
-29.968434240815963
30
0
10
64.639827153445111
20
-29.963718599757367
30
0
10
64.642197225396671
20
-29.959002958698765
30
0
10
65.777974281015062
20
-27.699191009376523
30
0
10
66.738664274631333
20
-25.496527030420829
30
0
10
67.56923734251103
20
-23.110359056576758
30
0
10
68.094267499635265
20
-21.601990684567795
30
0
10
68.566629981285118
20
-20.032889688991379
30
0
10
68.965102670628809
20
-18.590333821395429
30
0
10
69.306130969226004
20
-17.355738863412494
30
0
10
69.597909695712275
20
-16.188553036928145
30
0
10
69.903980547331642
20
-14.67550426598155
30
0
10
70.197592695029982
20
-13.224044589702228
30
0
10
70.510077906464915
20
-11.418171499059941
30
0
10
70.798292374831675
20
-9.4426936481021162
30
0
10
71.130599182620799
20
-7.1649983532408568
30
0
10
71.413803647916666
20
-4.750862908768049
30
0
10
71.576364852213757
20
-2.5724570984162858
30
0
10
71.688926105533511
20
-1.0640769820624572
30
0
10
71.747393613428812
20
0.34897678925835007
30
0
10
71.750149860958857
20
1.6568872843815965
30
0
10
71.750150231040195
20
1.6570628975211941
30
0
10
71.750150601121533
20
1.6572385106606702
30
0
10
71.750150971202871
20
1.6574141237956601
30
0
0
LINE
5
155
100
AcDbEntity
8
0
100
AcDbLine
10
71.750150971202885
20
1.6574141237956601
30
0
11
71.750150971204164
21
52.105318120299309
31
0
0
ARC
5
156
100
AcDbEntity
8
0
100
AcDbCircle
10
70.200150971204152
20
52.105318120299238
30
0
40
1.5500000000000025
210
0
220
-0
230
1
100
AcDbArc
50
0
51
90
0
LINE
5
157
100
AcDbEntity
8
0
100
AcDbLine
10
70.200150971204152
20
53.655318120299242
30
0
11
-13.052858491370856
21
53.655318120299242
31
0
0
LINE
5
158
100
AcDbEntity
8
0
100
AcDbLine
10
-24.793906828439081
20
53.526393639139357
30
0
11
-13.052858491370856
21
53.655318120299242
31
0
0
SPLINE
5
159
100
AcDbEntity
8
0
100
AcDbSpline
70
0
71
3
72
32
73
28
74
0
42
0.000000001
43
0.0000000001
44
0.0000000001
40
-0.0042175216463261472
40
-0.0042175216463261472
40
-0.0042175216463261472
40
-0.0042175216463261472
40
0
40
0
40
0
40
0.10742869733624699
40
0.10742869733624699
40
0.10742869733624699
40
0.22490755368414275
40
0.22490755368414275
40
0.22490755368414275
40
0.35797072411187369
40
0.35797072411187369
40
0.35797072411187369
40
0.50202245474839413
40
0.50202245474839413
40
0.50202245474839413
40
0.66536094839103666
40
0.66536094839103666
40
0.66536094839103666
40
0.89592313646556443
40
0.89592313646556443
40
0.89592313646556443
40
1
40
1
40
1
40
1.0000262060771192
40
1.0000262060771192
40
1.0000262060771192
40
1.0000262060771192
10
-71.750150971203965
20
46.890283708038879
30
0
10
-71.741006564565708
20
46.916739490509123
30
0
10
-71.731862157927367
20
46.943195272979509
30
0
10
-71.722717751289025
20
46.969651055449916
30
0
10
-71.423728147940437
20
47.834661134281731
30
0
10
-70.605112324237354
20
48.453010586970812
30
0
10
-69.540281450942388
20
48.90726782213946
30
0
10
-68.375833623681828
20
49.404021685851859
30
0
10
-66.93166952932124
20
49.753457106951764
30
0
10
-65.418710331733735
20
50.086080056793712
30
0
10
-63.705047517698397
20
50.462827546843542
30
0
10
-61.816703220529789
20
50.807054556144251
30
0
10
-59.653526300610054
20
51.117193154348911
30
0
10
-57.31171092084908
20
51.452943472524524
30
0
10
-54.726815538723706
20
51.742200549391356
30
0
10
-52.27065011884055
20
51.985749114101111
30
0
10
-49.485634221786455
20
52.261905849690038
30
0
10
-46.817755861981624
20
52.484795945650703
30
0
10
-43.882549376318174
20
52.688834227409188
30
0
10
-39.739327440736218
20
52.976846634307748
30
0
10
-35.07280236017634
20
53.223101107146746
30
0
10
-30.65309868645711
20
53.375320656167517
30
0
10
-28.658023518435062
20
53.444033281437996
30
0
10
-26.703329325605324
20
53.494433113186226
30
0
10
-24.795345765078235
20
53.526369553756552
30
0
10
-24.794866119531832
20
53.526377582217492
30
0
10
-24.794386473985455
20
53.526385610678425
30
0
10
-24.793906828440381
20
53.526393639139364
30
0
0
LINE
5
160
100
AcDbEntity
8
0
100
AcDbLine
10
-71.750150971203965
20
46.890283708038879
30
0
11
-71.750150971204164
21
-29.034544852921247
31
0
0
ARC
5
161
100
AcDbEntity
8
0
100
AcDbCircle
10
-69.75015097120415
20
-29.034544852921229
30
0
40
2.0000000000000107
210
0
220
0
230
1
100
AcDbArc
50
180
51
270
0
LINE
5
162
100
AcDbEntity
8
0
100
AcDbLine
10
-69.75015097120415
20
-31.03454485292124
30
0
11
-27.6167941207631
21
-31.03454485292124
31
0
0
ARC
5
163
100
AcDbEntity
8
0
100
AcDbCircle
10
-27.616794120763103
20
-34.034544852921243
30
0
40
3.0000000000000027
210
0
220
0
230
1
100
AcDbArc
50
0
51
89.999999999999929
0
LINE
5
164
100
AcDbEntity
8
0
100
AcDbLine
10
-24.616794120763103
20
-34.034544852921243
30
0
11
-24.616794120763103
21
-43.754251311656077
31
0
0
ARC
5
165
100
AcDbEntity
8
0
100
AcDbCircle
10
-22.616794120763089
20
-43.75425131165607
30
0
40
2.0000000000000107
210
0
220
0
230
1
100
AcDbArc
50
180
51
269.99999999999937
0
LINE
5
166
100
AcDbEntity
8
0
100
AcDbLine
10
-22.61679412076311
20
-45.754251311656084
30
0
11
36.175829106023365
21
-45.754251311656084
31
0
0
LINE
5
167
100
AcDbEntity
8
0
100
AcDbLine
10
36.175829106023365
20
-45.754251311656084
30
0
11
49.484000972788742
21
-53.446035216381098
31
0
0
LINE
5
168
100
AcDbEntity
8
0
100
AcDbLine
10
49.604950832993239
20
-53.515941150668212
30
0
11
49.484000972788742
21
-53.446035216381098
31
0
0
ENDSEC
0
SECTION
2
OBJECTS
0
DICTIONARY
5
C
100
AcDbDictionary
3
ACAD_GROUP
350
D
3
ACAD_MLINESTYLE
350
17
0
DICTIONARY
5
D
100
AcDbDictionary
0
DICTIONARY
5
1A
330
C
100
AcDbDictionary
0
DICTIONARY
5
17
100
AcDbDictionary
0
ENDSEC
0
EOF
