0
SECTION
2
HEADER
9
$INSUNITS
70
4
9
$ACADVER
1
AC1014
9
$HANDSEED
5
FFFF
0
ENDSEC
0
SECTION
2
TABLES
0
TABLE
2
VPORT
5
8
100
AcDbSymbolTable
0
ENDTAB
0
TABLE
2
LTYPE
5
5
100
AcDbSymbolTable
0
LTYPE
5
14
100
AcDbSymbolTableRecord
100
AcDbLinetypeTableRecord
2
BYBLOCK
70
0
0
LTYPE
5
15
100
AcDbSymbolTableRecord
100
AcDbLinetypeTableRecord
2
BYLAYER
70
0
0
ENDTAB
0
TABLE
2
LAYER
5
2
100
AcDbSymbolTable
70
2
0
LAYER
5
50
100
AcDbSymbolTableRecord
100
AcDbLayerTableRecord
2
0
70
0
6
CONTINUOUS
0
ENDTAB
0
TABLE
2
STYLE
5
3
100
AcDbSymbolTable
70
1
0
STYLE
5
11
100
AcDbSymbolTableRecord
100
AcDbTextStyleTableRecord
2
STANDARD
70
0
0
ENDTAB
0
TABLE
2
VIEW
5
6
100
AcDbSymbolTable
70
0
0
ENDTAB
0
TABLE
2
UCS
5
7
100
AcDbSymbolTable
70
0
0
ENDTAB
0
TABLE
2
APPID
5
9
100
AcDbSymbolTable
70
2
0
APPID
5
12
100
AcDbSymbolTableRecord
100
AcDbRegAppTableRecord
2
ACAD
70
0
0
ENDTAB
0
TABLE
2
DIMSTYLE
5
A
100
AcDbSymbolTable
70
1
0
ENDTAB
0
TABLE
2
BLOCK_RECORD
5
1
100
AcDbSymbolTable
70
1
0
BLOCK_RECORD
5
1F
100
AcDbSymbolTableRecord
100
AcDbBlockTableRecord
2
*MODEL_SPACE
0
BLOCK_RECORD
5
1B
100
AcDbSymbolTableRecord
100
AcDbBlockTableRecord
2
*PAPER_SPACE
0
ENDTAB
0
ENDSEC
0
SECTION
2
BLOCKS
0
BLOCK
5
20
100
AcDbEntity
100
AcDbBlockBegin
2
*MODEL_SPACE
0
ENDBLK
5
21
100
AcDbEntity
100
AcDbBlockEnd
0
BLOCK
5
1C
100
AcDbEntity
100
AcDbBlockBegin
2
*PAPER_SPACE
0
ENDBLK
5
1D
100
AcDbEntity
100
AcDbBlockEnd
0
ENDSEC
0
SECTION
2
ENTITIES
0
CIRCLE
5
100
100
AcDbEntity
8
0
100
AcDbCircle
10
51.634868002249242
20
-58.154219832368071
30
0
40
1.2250000000000001
210
0
220
-0
230
1
0
CIRCLE
5
101
100
AcDbEntity
8
0
100
AcDbCircle
10
75.750150971204164
20
49.155318120299256
30
0
40
1.2250000000000001
210
0
220
-0
230
1
0
LINE
5
102
100
AcDbEntity
8
0
100
AcDbLine
10
73.750150971202899
20
53.655318120299249
30
0
11
78.25015097120415
21
53.655318120299256
31
0
0
ARC
5
103
100
AcDbEntity
8
0
100
AcDbCircle
10
73.750150971202913
20
51.655318120299242
30
0
40
2.0000000000000107
210
0
220
0
230
1
100
AcDbArc
50
90.000000000000398
51
180
0
ARC
5
104
100
AcDbEntity
8
0
100
AcDbCircle
10
78.25015097120415
20
51.655318120299242
30
0
40
2.0000000000000195
210
0
220
-0
230
1
100
AcDbArc
50
0
51
90
0
LINE
5
105
100
AcDbEntity
8
0
100
AcDbLine
10
80.250150971204135
20
1.6484578242050794
30
0
11
80.250150971204164
21
51.655318120299242
31
0
0
LINE
5
106
100
AcDbEntity
8
0
100
AcDbLine
10
71.750150971202885
20
1.6574141237956601
30
0
11
71.750150971202913
21
51.655318120299249
31
0
0
SPLINE
5
107
100
AcDbEntity
8
0
100
AcDbSpline
70
0
71
3
72
29
73
25
74
0
42
0.000000001
43
0.0000000001
44
0.0000000001
40
-0.010213836873059257
40
-0.010213836873059257
40
-0.010213836873059257
40
-0.010213836873059257
40
0
40
0
40
0
40
0.25
40
0.25
40
0.25
40
0.39993388100082222
40
0.39993388100082222
40
0.39993388100082222
40
0.56443599066817429
40
0.56443599066817429
40
0.56443599066817429
40
0.71221888744263706
40
0.71221888744263706
40
0.71221888744263706
40
0.88881505188668453
40
0.88881505188668453
40
0.88881505188668453
40
1
40
1
40
1
40
1.0002732271388703
40
1.0002732271388703
40
1.0002732271388703
40
1.0002732271388703
10
72.108935520774665
20
-34.030740055360837
30
0
10
72.151596815910494
20
-33.945858516290635
30
0
10
72.194258111046395
20
-33.860976977220318
30
0
10
72.236919406182267
20
-33.776095438150001
30
0
10
73.420761918500887
20
-31.420649497223962
30
0
10
74.465636666669738
20
-29.057895946267514
30
0
10
75.381080711836987
20
-26.514172308228741
30
0
10
75.930105025961041
20
-24.988610879250004
30
0
10
76.415546752637908
20
-23.438713951795126
30
0
10
76.831785279405722
20
-22.005371177674299
30
0
10
77.288467353671265
20
-20.432758579071329
30
0
10
77.684651964528342
20
-18.955641091123564
30
0
10
78.07736780220786
20
-17.119821253310647
30
0
10
78.430169867900815
20
-15.470585422009561
30
0
10
78.781125827475378
20
-13.514679240984595
30
0
10
79.112932089980262
20
-11.318469554177142
30
0
10
79.509430700954852
20
-8.6940643254925263
30
0
10
79.857816920640985
20
-5.8305539128337438
30
0
10
80.054980393545506
20
-3.1756608164057654
30
0
10
80.179114519412522
20
-1.5041400781041698
30
0
10
80.246890127463374
20
0.10110342115802806
30
0
10
80.250130986788548
20
1.6389747039177605
30
0
10
80.25013764826042
20
1.6421357440173754
30
0
10
80.250144309732292
20
1.6452967841139814
30
0
10
80.250150971204135
20
1.6484578242050794
30
0
0
SPLINE
5
108
100
AcDbEntity
8
0
100
AcDbSpline
70
0
71
3
72
29
73
25
74
0
42
0.000000001
43
0.0000000001
44
0.0000000001
40
-0.00056743538173053762
40
-0.00056743538173053762
40
-0.00056743538173053762
40
-0.00056743538173053762
40
0
40
0
40
0
40
0.26991895555342449
40
0.26991895555342449
40
0.26991895555342449
40
0.4405428261381048
40
0.4405428261381048
40
0.4405428261381048
40
0.58656931638865895
40
0.58656931638865895
40
0.58656931638865895
40
0.72665175545945848
40
0.72665175545945848
40
0.72665175545945848
40
0.8881646330700822
40
0.8881646330700822
40
0.8881646330700822
40
1
40
1
40
1
40
1.0000151792682455
40
1.0000151792682455
40
1.0000151792682455
40
1.0000151792682455
10
64.635087009542389
20
-29.973149881873713
30
0
10
64.637457081493551
20
-29.968434240815963
30
0
10
64.639827153445111
20
-29.963718599757367
30
0
10
64.642197225396671
20
-29.959002958698765
30
0
10
65.777974281015062
20
-27.699191009376523
30
0
10
66.738664274631333
20
-25.496527030420829
30
0
10
67.56923734251103
20
-23.110359056576758
30
0
10
68.094267499635265
20
-21.601990684567795
30
0
10
68.566629981285118
20
-20.032889688991379
30
0
10
68.965102670628809
20
-18.590333821395429
30
0
10
69.306130969226004
20
-17.355738863412494
30
0
10
69.597909695712275
20
-16.188553036928145
30
0
10
69.903980547331642
20
-14.67550426598155
30
0
10
70.197592695029982
20
-13.224044589702228
30
0
10
70.510077906464915
20
-11.418171499059941
30
0
10
70.798292374831675
20
-9.4426936481021162
30
0
10
71.130599182620799
20
-7.1649983532408568
30
0
10
71.413803647916666
20
-4.750862908768049
30
0
10
71.576364852213757
20
-2.5724570984162858
30
0
10
71.688926105533511
20
-1.0640769820624572
30
0
10
71.747393613428812
20
0.34897678925835007
30
0
10
71.750149860958857
20
1.6568872843815965
30
0
10
71.750150231040195
20
1.6570628975211941
30
0
10
71.750150601121533
20
1.6572385106606702
30
0
10
71.750150971202871
20
1.6574141237956601
30
0
0
LINE
5
109
100
AcDbEntity
8
0
100
AcDbLine
10
57.638484874388212
20
-58.782536919654405
30
0
11
72.108935520774665
21
-34.030740055360837
31
0
0
LINE
5
110
100
AcDbEntity
8
0
100
AcDbLine
10
51.224713437486656
20
-52.911678241576865
30
0
11
64.635087009542389
21
-29.973149881873713
31
0
0
ARC
5
111
100
AcDbEntity
8
0
100
AcDbCircle
10
50.732131116097491
20
-54.744928993500146
30
0
40
8.0000000000000053
210
0
220
0
230
1
100
AcDbArc
50
239.97318315234958
51
329.68849452296155
0
LINE
5
112
100
AcDbEntity
8
0
100
AcDbLine
10
57.638484874388212
20
-58.782536919654405
30
0
11
57.638534715558734
21
-58.782451666018659
31
0
0
LINE
5
113
100
AcDbEntity
8
0
100
AcDbLine
10
51.224713437486656
20
-52.911678241576865
30
0
11
47.092976434546088
21
-59.979040377877048
31
0
0
ARC
5
114
100
AcDbEntity
8
0
100
AcDbCircle
10
50.732180957268042
20
-54.74484373986445
30
0
40
8.0000000000000764
210
0
220
0
230
1
100
AcDbArc
50
246.58140393100618
51
329.68849452296178
0
LINE
5
115
100
AcDbEntity
8
0
100
AcDbLine
10
47.552615048721485
20
-62.085849163729065
30
0
11
47.23717225938006
21
-61.949223309206978
31
0
0
LINE
5
116
100
AcDbEntity
8
0
100
AcDbLine
10
46.772261898093539
20
-60.52529539239498
30
0
11
47.092976434546088
21
-59.979040377877048
31
0
0
ARC
5
117
100
AcDbEntity
8
0
100
AcDbCircle
10
47.634617997948354
20
-61.03159763122391
30
0
40
0.99999999999999178
210
0
220
0
230
1
100
AcDbArc
50
149.58216390847267
51
246.58140393100729
0
CIRCLE
5
118
100
AcDbEntity
8
0
100
AcDbCircle
10
75.750150971204135
20
11.15794096558535
30
0
40
1.2250000000000001
210
0
220
-0
230
1
0
ENDSEC
0
SECTION
2
OBJECTS
0
DICTIONARY
5
C
100
AcDbDictionary
3
ACAD_GROUP
350
D
3
ACAD_MLINESTYLE
350
17
0
DICTIONARY
5
D
100
AcDbDictionary
0
DICTIONARY
5
1A
330
C
100
AcDbDictionary
0
DICTIONARY
5
17
100
AcDbDictionary
0
ENDSEC
0
EOF
