0
SECTION
2
HEADER
9
$INSUNITS
70
4
9
$ACADVER
1
AC1014
9
$HANDSEED
5
FFFF
0
ENDSEC
0
SECTION
2
TABLES
0
TABLE
2
VPORT
5
8
100
AcDbSymbolTable
0
ENDTAB
0
TABLE
2
LTYPE
5
5
100
AcDbSymbolTable
0
LTYPE
5
14
100
AcDbSymbolTableRecord
100
AcDbLinetypeTableRecord
2
BYBLOCK
70
0
0
LTYPE
5
15
100
AcDbSymbolTableRecord
100
AcDbLinetypeTableRecord
2
BYLAYER
70
0
0
ENDTAB
0
TABLE
2
LAYER
5
2
100
AcDbSymbolTable
70
2
0
LAYER
5
50
100
AcDbSymbolTableRecord
100
AcDbLayerTableRecord
2
0
70
0
6
CONTINUOUS
0
ENDTAB
0
TABLE
2
STYLE
5
3
100
AcDbSymbolTable
70
1
0
STYLE
5
11
100
AcDbSymbolTableRecord
100
AcDbTextStyleTableRecord
2
STANDARD
70
0
0
ENDTAB
0
TABLE
2
VIEW
5
6
100
AcDbSymbolTable
70
0
0
ENDTAB
0
TABLE
2
UCS
5
7
100
AcDbSymbolTable
70
0
0
ENDTAB
0
TABLE
2
APPID
5
9
100
AcDbSymbolTable
70
2
0
APPID
5
12
100
AcDbSymbolTableRecord
100
AcDbRegAppTableRecord
2
ACAD
70
0
0
ENDTAB
0
TABLE
2
DIMSTYLE
5
A
100
AcDbSymbolTable
70
1
0
ENDTAB
0
TABLE
2
BLOCK_RECORD
5
1
100
AcDbSymbolTable
70
1
0
BLOCK_RECORD
5
1F
100
AcDbSymbolTableRecord
100
AcDbBlockTableRecord
2
*MODEL_SPACE
0
BLOCK_RECORD
5
1B
100
AcDbSymbolTableRecord
100
AcDbBlockTableRecord
2
*PAPER_SPACE
0
ENDTAB
0
ENDSEC
0
SECTION
2
BLOCKS
0
BLOCK
5
20
100
AcDbEntity
100
AcDbBlockBegin
2
*MODEL_SPACE
0
ENDBLK
5
21
100
AcDbEntity
100
AcDbBlockEnd
0
BLOCK
5
1C
100
AcDbEntity
100
AcDbBlockBegin
2
*PAPER_SPACE
0
ENDBLK
5
1D
100
AcDbEntity
100
AcDbBlockEnd
0
ENDSEC
0
SECTION
2
ENTITIES
0
LWPOLYLINE
5
100
100
AcDbEntity
8
0
100
AcDbPolyline
90
4
70
1
43
0.0
10
-16.449621822903104
20
16.636713269473784
10
-16.449613748460568
20
30.638462785007235
10
-30.451367301215289
20
30.638462785007235
10
-30.451367301215278
20
16.636713269473784
0
LWPOLYLINE
5
101
100
AcDbEntity
8
0
100
AcDbPolyline
90
4
70
1
43
0.0
10
-54.602533644904256
20
-27.763903439917492
10
-54.602533644904256
20
-13.762149887162769
10
-68.604283160437703
20
-13.762149887162769
10
-68.604283160437689
20
-27.763903439917492
0
LWPOLYLINE
5
102
100
AcDbEntity
8
0
100
AcDbPolyline
90
4
70
1
43
0.0
10
-30.451367301215289
20
-7.5603159078740401
10
-30.451367301215278
20
-21.562069460628763
10
-16.449621822903104
20
-21.562069460628763
10
-16.449613748460568
20
-7.5603159078740401
0
LWPOLYLINE
5
103
100
AcDbEntity
8
0
100
AcDbPolyline
90
4
70
1
43
0.0
10
26.645712802341048
20
33.238437321902985
10
40.647458280653233
20
33.238437321902985
10
40.647458280653211
20
47.240184818825803
10
26.645712802341031
20
47.240184818825803
0
LWPOLYLINE
5
104
100
AcDbEntity
8
0
100
AcDbPolyline
90
4
70
1
43
0.0
10
-11.454287197658957
20
31.940212300540686
10
-11.454287197658957
20
17.938462785007232
10
2.5474582806532275
20
17.938462785007232
10
2.5474663550957644
20
31.940212300540686
0
LWPOLYLINE
5
105
100
AcDbEntity
8
0
100
AcDbPolyline
90
4
70
1
43
0.0
10
40.647458280653233
20
-4.8615626780970178
10
40.647458280653211
20
9.1401868374364259
10
26.645712802341031
20
9.1401868374364259
10
26.645712802341048
20
-4.8615626780970267
0
LWPOLYLINE
5
106
100
AcDbEntity
8
0
100
AcDbPolyline
90
4
70
1
43
0.0
10
7.6451122418348483
20
-2.4626700211349384
10
21.646857720147032
20
-2.4626700211349384
10
21.646857720147032
20
11.539075457177237
10
7.6451122418348483
20
11.539075457177237
0
LWPOLYLINE
5
107
100
AcDbEntity
8
0
100
AcDbPolyline
90
4
70
1
43
0.0
10
60.785505562554256
20
-0.23174999244841565
10
60.785505562554256
20
-14.231735242285657
10
44.910505562554249
20
-14.231735242285657
10
44.910505562554249
20
-0.23174999244841565
0
LWPOLYLINE
5
108
100
AcDbEntity
8
0
100
AcDbPolyline
90
4
70
1
43
0.0
10
7.6486326987847164
20
16.537934576592512
10
21.650378177096901
20
16.537934576592519
10
21.650378177096901
20
30.539684092125967
10
7.6486326987847164
20
30.539684092125967
0
LWPOLYLINE
5
109
100
AcDbEntity
8
0
100
AcDbPolyline
90
4
70
1
43
0.0
10
12.150077896843801
20
-26.511533177771504
10
-1.8516756559109204
20
-26.511533177771504
10
-1.8516756559109204
20
-40.513286730526225
10
12.150069822401264
20
-40.513286730526225
0
LWPOLYLINE
5
110
100
AcDbEntity
8
0
100
AcDbPolyline
90
4
70
1
43
0.0
10
26.645712802341031
20
-9.8604258347335705
10
26.645712802341048
20
-23.862171313045756
10
40.647458280653233
20
-23.862171313045756
10
40.647458280653211
20
-9.8604258347335705
0
LWPOLYLINE
5
111
100
AcDbEntity
8
0
100
AcDbPolyline
90
4
70
1
43
0.0
10
31.150686531792537
20
-28.762259814022315
10
17.148941053480353
20
-28.762259814022315
10
17.148941053480371
20
-42.764005292334495
10
31.150686531792555
20
-42.764005292334495
0
LWPOLYLINE
5
112
100
AcDbEntity
8
0
100
AcDbPolyline
90
4
70
1
43
0.0
10
-49.554283160437706
20
-12.25931849169565
10
-49.554283160437691
20
-26.261072044450373
10
-35.552533644904244
20
-26.261072044450373
10
-35.552533644904251
20
-12.25931849169565
0
LINE
5
113
100
AcDbEntity
8
0
100
AcDbLine
10
-6.9528735609809011
20
-26.511466243872583
30
0
11
-20.954622726470618
21
-26.511466243872583
31
0
0
LINE
5
114
100
AcDbEntity
8
0
100
AcDbLine
10
-68.551366060980911
20
29.340239214460766
30
0
11
-54.549616895491198
21
29.340239214460766
31
0
0
LWPOLYLINE
5
115
100
AcDbEntity
8
0
100
AcDbPolyline
90
4
70
1
43
0.0
10
-54.549650456814248
20
24.4401214852941
10
-68.551399622303961
20
24.4401214852941
10
-68.551366060980911
20
10.441899505368202
10
-54.549616895491198
20
10.442006860294093
0
LWPOLYLINE
5
116
100
AcDbEntity
8
0
100
AcDbPolyline
90
4
70
1
43
0.0
10
-49.554283160437691
20
11.937714722873443
10
-35.552533644904244
20
11.937714722873443
10
-35.552533644904251
20
25.939464238406895
10
-49.554283160437706
20
25.939464238406895
0
LWPOLYLINE
5
117
100
AcDbEntity
8
0
100
AcDbPolyline
90
4
70
1
43
0.0
10
7.6486326987847164
20
35.637321904422514
10
21.650378177096901
20
35.637321904422514
10
21.650378177096901
20
49.639073438566605
10
7.6486326987847164
20
49.639073438566605
0
LWPOLYLINE
5
118
100
AcDbEntity
8
0
100
AcDbPolyline
90
4
70
1
43
0.0
10
2.5474663550957644
20
12.840824972710685
10
-11.454287197658957
20
12.840824972710685
10
-11.454287197658957
20
-1.1609245428227677
10
2.5474582806532275
20
-1.1609245428227677
0
LWPOLYLINE
5
119
100
AcDbEntity
8
0
100
AcDbPolyline
90
4
70
1
43
0.0
10
21.646857720147032
20
-21.562069460628763
10
21.646857720147032
20
-7.5603159078740401
10
7.6451122418348483
20
-7.5603159078740401
10
7.6451122418348483
20
-21.562069460628763
0
LWPOLYLINE
5
120
100
AcDbEntity
8
0
100
AcDbPolyline
90
4
70
1
43
0.0
10
-54.553142279852977
20
5.2384627850072274
10
-68.554891795386425
20
5.2384627850072274
10
-68.554891795386425
20
-8.7632867305262163
10
-54.553142279852977
20
-8.7632867305262163
0
LWPOLYLINE
5
121
100
AcDbEntity
8
0
100
AcDbPolyline
90
4
70
1
43
0.0
10
-49.540173072089303
20
-7.2639757920089654
10
-35.538423556555855
20
-7.2639757920089654
10
-35.538423556555863
20
6.7377696863032099
10
-49.540173072089317
20
6.7377696863032099
0
LWPOLYLINE
5
122
100
AcDbEntity
8
0
100
AcDbPolyline
90
4
70
1
43
0.0
10
2.5474663550957644
20
-6.1597876994593204
10
-11.454287197658957
20
-6.1597876994593204
10
-11.454287197658957
20
-20.161541252214043
10
2.5474582806532275
20
-20.161541252214043
0
LWPOLYLINE
5
123
100
AcDbEntity
8
0
100
AcDbPolyline
90
4
70
1
43
0.0
10
40.647458280653211
20
28.137266940992749
10
26.645712802341031
20
28.137266940992749
10
26.645712802341048
20
14.135517425459296
10
40.647458280653233
20
14.135517425459296
0
LWPOLYLINE
5
124
100
AcDbEntity
8
0
100
AcDbPolyline
90
4
70
1
43
0.0
10
-49.554283160437691
20
30.836020170769764
10
-35.552533644904244
20
30.836020170769764
10
-35.552533644904251
20
44.837769686303218
10
-49.554283160437706
20
44.837769686303218
0
LWPOLYLINE
5
125
100
AcDbEntity
8
0
100
AcDbPolyline
90
4
70
1
43
0.0
10
-16.453142279852973
20
-2.4626700211349384
10
-16.453142279852973
20
11.539075457177237
10
-30.45488775816515
20
11.539075457177237
10
-30.454887758165157
20
-2.4626700211349384
0
LWPOLYLINE
5
126
100
AcDbEntity
8
0
100
AcDbPolyline
90
4
70
1
43
0.0
10
-16.456678885687932
20
35.637321904422514
10
-16.456670811245395
20
49.639073438566605
10
-30.458424364000116
20
49.639073438566605
10
-30.458424364000116
20
35.637321904422514
0
LINE
5
127
100
AcDbEntity
8
0
100
AcDbLine
10
-6.9527688518883579
20
-40.513356473039252
30
0
11
-6.9528735609809011
21
-36.085995405325157
31
0
0
LINE
5
128
100
AcDbEntity
8
0
100
AcDbLine
10
-6.9528735609809011
20
-36.082466702205906
30
0
11
-6.9528735609809011
21
-26.508078267995209
31
0
0
LINE
5
129
100
AcDbEntity
8
0
100
AcDbLine
10
-20.950990831814245
20
-40.513215409362296
30
0
11
-6.9527688518883579
21
-40.513356473039252
31
0
0
LINE
5
130
100
AcDbEntity
8
0
100
AcDbLine
10
-20.950990831814245
20
-26.511466243872583
30
0
11
-20.950990831814245
21
-40.513215409362296
31
0
0
LWPOLYLINE
5
131
100
AcDbEntity
8
0
100
AcDbPolyline
90
4
70
1
43
0.0
10
51.710257100070734
20
-46.321771424868253
10
58.711132355685777
20
-34.196093368872582
10
46.585454299690099
20
-27.195218786127732
10
39.584579044075028
20
-39.320896842123403
0
LWPOLYLINE
5
132
100
AcDbEntity
8
0
100
AcDbPolyline
90
4
70
1
43
0.0
10
-11.383732718695754
20
51.029018071414704
10
-11.383732718695754
20
37.027268555881257
10
2.6180127596164304
20
37.027268555881257
10
2.6180208340589672
20
51.029018071414704
0
LINE
5
133
100
AcDbEntity
8
0
100
AcDbLine
10
-68.551399622303961
20
43.338496714460774
30
0
11
-68.551366060980911
21
29.336747548971054
31
0
0
LINE
5
134
100
AcDbEntity
8
0
100
AcDbLine
10
-54.549650456814248
20
43.338496714460774
30
0
11
-68.551399622303961
21
43.338496714460774
31
0
0
LINE
5
135
100
AcDbEntity
8
0
100
AcDbLine
10
-54.549616895491198
20
29.340239214460766
30
0
11
-54.549650456814248
21
43.338496714460774
31
0
0
CIRCLE
5
136
100
AcDbEntity
8
0
100
AcDbCircle
10
-75.295511555400481
20
50.257300999671486
30
0
40
1.2250000000000001
210
0
220
-0
230
1
0
CIRCLE
5
137
100
AcDbEntity
8
0
100
AcDbCircle
10
-74.75015097120405
20
-34.034544852921236
30
0
40
1.2250000000000001
210
0
220
-0
230
1
0
CIRCLE
5
138
100
AcDbEntity
8
0
100
AcDbCircle
10
51.634868002249242
20
-58.154219832368071
30
0
40
1.2250000000000001
210
0
220
-0
230
1
0
CIRCLE
5
139
100
AcDbEntity
8
0
100
AcDbCircle
10
38.440544784827644
20
57.655318120299256
30
0
40
1.2250000000000001
210
0
220
-0
230
1
0
LINE
5
140
100
AcDbEntity
8
0
100
AcDbLine
10
-72.250150971204249
20
-39.534544852921243
30
0
11
-33.116794120763103
21
-39.534544852921243
31
0
0
LINE
5
141
100
AcDbEntity
8
0
100
AcDbLine
10
-33.116794120763103
20
-39.534544852921243
30
0
11
-33.116794120763103
21
-46.254251311656091
31
0
0
ARC
5
142
100
AcDbEntity
8
0
100
AcDbCircle
10
-25.1167941207631
20
-46.254251311656091
30
0
40
8.0000000000000036
210
0
220
0
230
1
100
AcDbArc
50
180
51
270
0
LINE
5
143
100
AcDbEntity
8
0
100
AcDbLine
10
-25.1167941207631
20
-54.254251311656091
30
0
11
33.896128840227249
21
-54.254251311656091
31
0
0
LINE
5
144
100
AcDbEntity
8
0
100
AcDbLine
10
33.896128840227249
20
-54.254251311656091
30
0
11
46.728888862261783
21
-61.671259295839505
31
0
0
ARC
5
145
100
AcDbEntity
8
0
100
AcDbCircle
10
50.732131116097499
20
-54.744928993500153
30
0
40
8
210
0
220
0
230
1
100
AcDbArc
50
239.97318315234969
51
329.68849452296155
0
LINE
5
146
100
AcDbEntity
8
0
100
AcDbLine
10
57.638484874388219
20
-58.782536919654412
30
0
11
72.108935520774381
21
-34.030740055361413
31
0
0
SPLINE
5
147
100
AcDbEntity
8
0
100
AcDbSpline
70
0
71
3
72
29
73
25
74
0
42
0.000000001
43
0.0000000001
44
0.0000000001
40
-0.010213836873059257
40
-0.010213836873059257
40
-0.010213836873059257
40
-0.010213836873059257
40
0
40
0
40
0
40
0.25
40
0.25
40
0.25
40
0.39993388100082222
40
0.39993388100082222
40
0.39993388100082222
40
0.56443599066817429
40
0.56443599066817429
40
0.56443599066817429
40
0.71221888744263706
40
0.71221888744263706
40
0.71221888744263706
40
0.88881505188668453
40
0.88881505188668453
40
0.88881505188668453
40
1
40
1
40
1
40
1.0002732271388703
40
1.0002732271388703
40
1.0002732271388703
40
1.0002732271388703
10
72.108935520774665
20
-34.030740055360837
30
0
10
72.151596815910494
20
-33.945858516290635
30
0
10
72.194258111046395
20
-33.860976977220318
30
0
10
72.236919406182267
20
-33.776095438150001
30
0
10
73.420761918500887
20
-31.420649497223962
30
0
10
74.465636666669738
20
-29.057895946267514
30
0
10
75.381080711836987
20
-26.514172308228741
30
0
10
75.930105025961041
20
-24.988610879250004
30
0
10
76.415546752637908
20
-23.438713951795126
30
0
10
76.831785279405722
20
-22.005371177674299
30
0
10
77.288467353671265
20
-20.432758579071329
30
0
10
77.684651964528342
20
-18.955641091123564
30
0
10
78.07736780220786
20
-17.119821253310647
30
0
10
78.430169867900815
20
-15.470585422009561
30
0
10
78.781125827475378
20
-13.514679240984595
30
0
10
79.112932089980262
20
-11.318469554177142
30
0
10
79.509430700954852
20
-8.6940643254925263
30
0
10
79.857816920640985
20
-5.8305539128337438
30
0
10
80.054980393545506
20
-3.1756608164057654
30
0
10
80.179114519412522
20
-1.5041400781041698
30
0
10
80.246890127463374
20
0.10110342115802806
30
0
10
80.250130986788548
20
1.6389747039177605
30
0
10
80.25013764826042
20
1.6421357440173754
30
0
10
80.250144309732292
20
1.6452967841139814
30
0
10
80.250150971204135
20
1.6484578242050794
30
0
0
LINE
5
148
100
AcDbEntity
8
0
100
AcDbLine
10
80.250150971204135
20
1.6484578242050794
30
0
11
80.250150971204164
21
51.655318120299242
31
0
0
ARC
5
149
100
AcDbEntity
8
0
100
AcDbCircle
10
78.25015097120415
20
51.655318120299242
30
0
40
2.0000000000000195
210
-0
220
0
230
1
100
AcDbArc
50
0
51
90
0
LINE
5
150
100
AcDbEntity
8
0
100
AcDbLine
10
-24.911700703035184
20
62.025612612461963
30
0
11
-13.099524897433454
21
62.155318120299242
31
0
0
SPLINE
5
151
100
AcDbEntity
8
0
100
AcDbSpline
70
4
71
3
72
18
73
14
74
0
42
0.000000001
43
0.0000000001
44
0.0000000001
40
0
40
0
40
0
40
0
40
0.090909090909090912
40
0.18181818181818182
40
0.27272727272727271
40
0.36363636363636365
40
0.45454545454545459
40
0.54545454545454541
40
0.63636363636363635
40
0.72727272727272729
40
0.81818181818181823
40
0.90909090909090917
40
1
40
1
40
1
40
1
41
1
41
1
41
1
41
1
41
1
41
1
41
1
41
1
41
1
41
1
41
1
41
1
41
1
41
1
10
-80.250150971203809
20
48.328025181767906
30
0
10
-80.200001187622547
20
50.50000075250864
30
0
10
-78.699998240917935
20
53.199998810887323
30
0
10
-76.140593512775453
20
54.980716940320903
30
0
10
-71.074915251976478
20
57.413233775929513
30
0
10
-65.475698551448886
20
58.754986049820687
30
0
10
-56.462957103981111
20
60.105544906725832
30
0
10
-48.4168959628539
20
60.833227487803256
30
0
10
-39.585487685812453
20
61.498328018880805
30
0
10
-30.660722252683875
20
61.879993925500642
30
0
10
-24.937601571005359
20
62.025179085218994
30
0
10
-24.928967943659707
20
62.025323597574349
30
0
10
-24.920334323420093
20
62.025468109810724
30
0
10
-24.911702368184166
20
62.025612594177503
30
0
0
LINE
5
152
100
AcDbEntity
8
0
100
AcDbLine
10
-80.250150971203709
20
48.328025181767906
30
0
11
-80.250150971204249
21
-31.534544852921222
31
0
0
ARC
5
153
100
AcDbEntity
8
0
100
AcDbCircle
10
-72.250150971204249
20
-31.534544852921236
30
0
40
8.0000000000000071
210
0
220
0
230
1
100
AcDbArc
50
180
51
270
0
LINE
5
154
100
AcDbEntity
8
0
100
AcDbLine
10
42.940544784827644
20
60.155318120299285
30
0
11
42.940544784827701
21
14.155318120299567
31
0
0
LINE
5
155
100
AcDbEntity
8
0
100
AcDbLine
10
71.750150971202913
20
51.655318120299249
30
0
11
71.750150971202913
21
14.155318120299579
31
0
0
LINE
5
156
100
AcDbEntity
8
0
100
AcDbLine
10
69.750150971202899
20
12.155318120299581
30
0
11
44.940544784827694
21
12.155318120299569
31
0
0
ARC
5
157
100
AcDbEntity
8
0
100
AcDbCircle
10
44.940544784827694
20
14.155318120299572
30
0
40
1.9999999999999929
210
0
220
0
230
1
100
AcDbArc
50
180
51
270
0
ARC
5
158
100
AcDbEntity
8
0
100
AcDbCircle
10
69.750150971202899
20
14.155318120299579
30
0
40
1.9999999999999996
210
-0
220
0
230
1
100
AcDbArc
50
-90
51
0
0
CIRCLE
5
159
100
AcDbEntity
8
0
100
AcDbCircle
10
75.750150971204135
20
11.15794096558535
30
0
40
1.8249999999999997
210
0
220
-0
230
1
0
CIRCLE
5
160
100
AcDbEntity
8
0
100
AcDbCircle
10
75.750150971204164
20
49.155318120299256
30
0
40
1.8249999999999997
210
0
220
-0
230
1
0
ARC
5
161
100
AcDbEntity
8
0
100
AcDbCircle
10
40.940544784827637
20
60.155318120299277
30
0
40
2.0000000000000107
210
0
220
-0
230
1
100
AcDbArc
50
0
51
90.000000000000398
0
LINE
5
162
100
AcDbEntity
8
0
100
AcDbLine
10
-13.099524897433446
20
62.155318120299242
30
0
11
40.940544784827622
21
62.155318120299292
31
0
0
ARC
5
163
100
AcDbEntity
8
0
100
AcDbCircle
10
73.750150971202913
20
51.655318120299242
30
0
40
2.0000000000000107
210
0
220
0
230
1
100
AcDbArc
50
90.000000000000398
51
180
0
LINE
5
164
100
AcDbEntity
8
0
100
AcDbLine
10
73.750150971202899
20
53.655318120299249
30
0
11
78.25015097120415
21
53.655318120299256
31
0
0
ENDSEC
0
SECTION
2
OBJECTS
0
DICTIONARY
5
C
100
AcDbDictionary
3
ACAD_GROUP
350
D
3
ACAD_MLINESTYLE
350
17
0
DICTIONARY
5
D
100
AcDbDictionary
0
DICTIONARY
5
1A
330
C
100
AcDbDictionary
0
DICTIONARY
5
17
100
AcDbDictionary
0
ENDSEC
0
EOF
