<?xml version="1.0" encoding="utf-8"?>
<!-- Generator: Adobe Illustrator 28.0.0, SVG Export Plug-In . SVG Version: 6.00 Build 0)  -->
<svg version="1.1" id="Layer_1" xmlns="http://www.w3.org/2000/svg" xmlns:xlink="http://www.w3.org/1999/xlink" x="0px" y="0px"
	 viewBox="0 0 1008 792" style="enable-background:new 0 0 1008 792;" xml:space="preserve">
<style type="text/css">
	.st0{fill:none;stroke:#000000;stroke-width:0.7087;stroke-linecap:round;stroke-linejoin:round;stroke-miterlimit:10;}
</style>
<g>
	<g id="CIRCLE_00000000199357221731010630000002205031088079435957_">
		<circle class="st0" cx="24" cy="43.7" r="3.5"/>
	</g>
	<g id="CIRCLE_00000063607073456416753100000014866469021788300940_">
		<circle class="st0" cx="25.6" cy="282.7" r="3.5"/>
	</g>
	<g id="CIRCLE_00000109008706084369717710000001708545038862175409_">
		<circle class="st0" cx="383.8" cy="351" r="3.5"/>
	</g>
	<g id="CIRCLE_00000031189314942142483980000016442164367137903526_">
		<circle class="st0" cx="452.2" cy="46.9" r="3.5"/>
	</g>
	<g id="CIRCLE_00000078012597238455455730000016808327861969754026_">
		<circle class="st0" cx="346.4" cy="22.8" r="3.5"/>
	</g>
	<g id="CIRCLE_00000034771052233645789680000012048390420527952777_">
		<circle class="st0" cx="452.2" cy="154.6" r="3.5"/>
	</g>
	<g id="ARC_00000044892161935794302010000001478227333819930028_">
		<path class="st0" d="M359.2,15.7v12.8c0,3.1,2.5,5.7,5.7,5.7h94.4c3.1,0,5.7,2.5,5.7,5.7v141.8c0,0,0,0,0,0
			c0,4.4-0.2,8.9-0.6,13.6c-0.6,7.5-1.5,15.6-2.7,23.1c-0.9,6.2-1.9,11.8-2.9,16.4c-1.1,5.2-2.2,9.4-3.5,13.8
			c-1.2,4.1-2.6,8.5-4.1,12.8c-2.6,7.2-5.6,13.9-8.9,20.6c-0.1,0.2-0.2,0.5-0.4,0.7l-41,70.2c-6.3,10.8-20.1,14.4-30.9,8.2l-36.4-21
			H166.3c-12.5,0-22.7-10.2-22.7-22.7v-19H32.7c-12.5,0-22.7-10.2-22.7-22.7V49.2c0.1-6.2,2.3-10,4.5-12.7s4.7-4.4,8.3-6.4
			s8.4-4.3,13.4-6.1s10.3-3.1,17.2-4.3c6.9-1.3,15.4-2.5,23.5-3.5c8.1-1,15.7-1.7,23.6-2.3s16.3-1.3,24.7-1.8s16.8-0.9,23.7-1.1
			c6.9-0.2,12.3-0.4,15-0.5s2.7-0.1,2.7-0.1s0,0,0,0l33.5-0.4h153.2C356.7,10,359.2,12.5,359.2,15.7z"/>
	</g>
</g>
<g>
	<g id="CIRCLE_00000115484447756425421530000010949031932269507237_">
		<circle class="st0" cx="24" cy="461.4" r="5.2"/>
	</g>
	<g id="CIRCLE_00000116213125579129311340000016309120443947477942_">
		<circle class="st0" cx="346.4" cy="440.4" r="5.2"/>
	</g>
	<g id="CIRCLE_00000134962693992952302200000011706750348827489185_">
		<circle class="st0" cx="25.6" cy="700.3" r="5.2"/>
	</g>
	<g id="CIRCLE_00000083064892919717238650000007500490638221297597_">
		<circle class="st0" cx="383.8" cy="768.7" r="5.2"/>
	</g>
	<g id="CIRCLE_00000099663174085450505550000013515232897929424017_">
		<circle class="st0" cx="452.2" cy="572.2" r="5.2"/>
	</g>
	<g id="CIRCLE_00000057135696981055579030000005105642639197537970_">
		<circle class="st0" cx="452.2" cy="464.5" r="5.2"/>
	</g>
	<g id="LINE_00000020392956818988681680000015314689222608495266_">
		<path class="st0" d="M446.5,451.8h12.8c3.1,0,5.7,2.5,5.7,5.7v141.8c0,0,0,0,0,0c0,4.4-0.2,8.9-0.6,13.6
			c-0.6,7.5-1.5,15.6-2.7,23.1c-0.9,6.2-1.9,11.8-2.9,16.4c-1.1,5.2-2.2,9.4-3.5,13.8c-1.2,4.1-2.6,8.5-4.1,12.8
			c-2.6,7.2-5.6,13.9-8.9,20.6c-0.1,0.2-0.2,0.5-0.4,0.7l-41,70.2c-6.3,10.8-20.1,14.4-30.9,8.2l-36.4-21H166.3
			c-12.5,0-22.7-10.2-22.7-22.7v-19H32.7c-12.5,0-22.7-10.2-22.7-22.7V466.9c0.1-6.2,2.3-10,4.5-12.7s4.7-4.4,8.3-6.4
			s8.4-4.3,13.4-6.1s10.3-3.1,17.2-4.3c6.9-1.3,15.4-2.5,23.5-3.5s15.7-1.7,23.6-2.3c8-0.7,16.3-1.3,24.7-1.8s16.8-0.9,23.7-1.1
			c6.9-0.2,12.3-0.4,15-0.5s2.7-0.1,2.7-0.1s0,0,0,0l33.5-0.4h153.2c3.1,0,5.7,2.5,5.7,5.7v12.8c0,3.1-2.5,5.7-5.7,5.7H200.5
			l-33.3,0.4c0,0,0,0,0,0c-5.4,0.1-10.9,0.2-16.6,0.4c-12.5,0.4-25.8,1.1-37.5,1.9c-8.3,0.6-15.9,1.2-23.8,2
			c-7,0.7-14.3,1.5-20.9,2.5c-6.1,0.9-11.5,1.9-16.3,2.9c-4.3,0.9-8.4,1.9-11.7,3.3c-3,1.3-5.3,3-6.2,5.5c0,0.1-0.1,0.1-0.1,0.2
			v215.2c0,3.1,2.5,5.7,5.7,5.7h119.4c4.7,0,8.5,3.8,8.5,8.5v27.6c0,3.1,2.5,5.7,5.7,5.7H340l37.7,21.8l0.3,0.2
			c1.5,0.9,3.4,0.4,4.3-1.1l0.3-0.6l38-65c0,0,0,0,0,0c3.2-6.4,5.9-12.6,8.3-19.4c1.5-4.3,2.8-8.7,4-12.8c1-3.5,1.8-6.8,2.7-11.1
			c0.8-4.1,1.7-9.2,2.5-14.8c0.9-6.5,1.7-13.3,2.2-19.5c0.3-4.3,0.5-8.3,0.5-12c0,0,0,0,0,0V457.4
			C440.9,454.3,443.4,451.8,446.5,451.8z"/>
	</g>
</g>
<g>
	<g id="LWPOLYLINE_00000166644071762760820510000008595932950930695569_">
		<rect x="684.2" y="101.3" class="st0" width="39.7" height="39.7"/>
	</g>
	<g id="LWPOLYLINE_00000103243509139599367640000005901104461554016694_">
		<rect x="576.1" y="227.1" class="st0" width="39.7" height="39.7"/>
	</g>
	<g id="LWPOLYLINE_00000158721879119895305400000011896557849426228149_">
		<rect x="684.2" y="209.5" class="st0" width="39.7" height="39.7"/>
	</g>
	<g id="LWPOLYLINE_00000158018729533539296530000006355960613082345134_">
		<rect x="846.1" y="54.2" class="st0" width="39.7" height="39.7"/>
	</g>
	<g id="LWPOLYLINE_00000094600614361376021710000010108202739254066574_">
		<rect x="738.1" y="97.6" class="st0" width="39.7" height="39.7"/>
	</g>
	<g id="LWPOLYLINE_00000109010040827732896760000017054924914648201895_">
		<rect x="846.1" y="162.2" class="st0" width="39.7" height="39.7"/>
	</g>
	<g id="LWPOLYLINE_00000088112916692498100600000017755245073530370743_">
		<rect x="792.2" y="155.4" class="st0" width="39.7" height="39.7"/>
	</g>
	<g id="LWPOLYLINE_00000079486427388871328830000014268553562332825787_">
		<rect x="897.8" y="188.8" class="st0" width="45" height="39.7"/>
	</g>
	<g id="LWPOLYLINE_00000004529355121096720140000006212694744696328327_">
		<rect x="792.2" y="101.5" class="st0" width="39.7" height="39.7"/>
	</g>
	<g id="LWPOLYLINE_00000045601157612984101540000015361833901242015927_">
		<rect x="765.3" y="263.3" class="st0" width="39.7" height="39.7"/>
	</g>
	<g id="LWPOLYLINE_00000053520229122660957960000006302446259340682934_">
		<rect x="846.1" y="216.1" class="st0" width="39.7" height="39.7"/>
	</g>
	<g id="LWPOLYLINE_00000181059337923570932360000016587815394491005579_">
		<rect x="819.1" y="269.6" class="st0" width="39.7" height="39.7"/>
	</g>
	<g id="LWPOLYLINE_00000150102725099155530510000008576408919005572535_">
		<rect x="630.1" y="222.9" class="st0" width="39.7" height="39.7"/>
	</g>
	<g id="LWPOLYLINE_00000010307733822089890270000007692328410820502192_">
		<rect x="576.2" y="118.8" class="st0" width="39.7" height="39.7"/>
	</g>
	<g id="LWPOLYLINE_00000111914423730203861470000008714888785592027826_">
		<rect x="630.1" y="114.6" class="st0" width="39.7" height="39.7"/>
	</g>
	<g id="LWPOLYLINE_00000053514395424557945510000007717549224037711489_">
		<rect x="792.2" y="47.4" class="st0" width="39.7" height="39.7"/>
	</g>
	<g id="LWPOLYLINE_00000181783927385946331690000002671139963425554078_">
		<rect x="738.1" y="151.7" class="st0" width="39.7" height="39.7"/>
	</g>
	<g id="LWPOLYLINE_00000060743537087361397670000007732775751823293327_">
		<rect x="792.2" y="209.5" class="st0" width="39.7" height="39.7"/>
	</g>
	<g id="LWPOLYLINE_00000077313479503013607070000004665330829702225030_">
		<rect x="576.2" y="173.3" class="st0" width="39.7" height="39.7"/>
	</g>
	<g id="LWPOLYLINE_00000006685392599982058400000008415744442501313466_">
		<rect x="630.1" y="169" class="st0" width="39.7" height="39.7"/>
	</g>
	<g id="LWPOLYLINE_00000005256416867337344350000010846172449045590968_">
		<rect x="738.1" y="205.6" class="st0" width="39.7" height="39.7"/>
	</g>
	<g id="LWPOLYLINE_00000000214462112306438390000011816772996367830665_">
		<rect x="846.1" y="108.4" class="st0" width="39.7" height="39.7"/>
	</g>
	<g id="LWPOLYLINE_00000075865621906798410910000010546384196605077400_">
		<rect x="630.1" y="61" class="st0" width="39.7" height="39.7"/>
	</g>
	<g id="LWPOLYLINE_00000074441840566932950140000004071737476668886413_">
		<rect x="684.2" y="155.4" class="st0" width="39.7" height="39.7"/>
	</g>
	<g id="LWPOLYLINE_00000059311762556154704950000009877544989667341998_">
		<rect x="684.2" y="47.4" class="st0" width="39.7" height="39.7"/>
	</g>
	<g id="LINE_00000004543092918723526320000003685253689955843210_">
		<polyline class="st0" points="711.1,263.3 711.1,303 750.8,303 750.8,290.4 750.8,290.4 750.8,263.3 750.8,263.3 711.1,263.3 		
			"/>
	</g>
	<g id="LWPOLYLINE_00000031187767592515429270000014343405095424174465_">
		<rect x="890" y="272.5" transform="matrix(0.5 -0.866 0.866 0.5 201.7674 934.0902)" class="st0" width="39.7" height="39.7"/>
	</g>
	<g id="LWPOLYLINE_00000044862188376499004830000000337401079794334105_">
		<rect x="738.3" y="43.5" class="st0" width="39.7" height="39.7"/>
	</g>
	<g id="LINE_00000147916068511019226410000015049670401817949347_">
		<polyline class="st0" points="576.2,104.9 615.9,104.9 615.9,65.3 576.2,65.3 576.2,105 		"/>
	</g>
	<g id="CIRCLE_00000026857000358242733310000001127681135627837604_">
		<circle class="st0" cx="557.1" cy="45.6" r="3.5"/>
	</g>
	<g id="CIRCLE_00000135687968234593626060000016882057705813060537_">
		<circle class="st0" cx="558.6" cy="284.6" r="3.5"/>
	</g>
	<g id="CIRCLE_00000085935280626402501730000017880951500214329234_">
		<circle class="st0" cx="916.9" cy="353" r="3.5"/>
	</g>
	<g id="CIRCLE_00000049912325933111595930000014113470792833041035_">
		<circle class="st0" cx="879.5" cy="24.7" r="3.5"/>
	</g>
	<g id="CIRCLE_00000082335052808928546300000013533144837151697585_">
		<circle class="st0" cx="985.2" cy="156.5" r="5.2"/>
	</g>
	<g id="CIRCLE_00000035511212415821259690000000305583442490178189_">
		<circle class="st0" cx="985.2" cy="48.8" r="5.2"/>
	</g>
	<g id="LINE_00000038408773441151454610000011655144841264445064_">
		<path class="st0" d="M973.9,41.7V148c0,3.1-2.5,5.7-5.7,5.7h-70.3c-3.1,0-5.7-2.5-5.7-5.7V17.6c0-3.1-2.5-5.7-5.7-5.7H733.4
			l-33.5,0.4c0,0,0,0,0,0s0,0-2.7,0.1c-2.7,0.1-8.1,0.2-15,0.5c-6.9,0.2-15.4,0.6-23.7,1.1s-16.7,1.1-24.7,1.8
			c-8,0.7-15.6,1.3-23.6,2.3s-16.6,2.3-23.5,3.5c-6.9,1.3-12.2,2.5-17.2,4.3c-5,1.8-9.8,4.1-13.4,6.1c-3.6,2-6,3.7-8.3,6.4
			c-2.3,2.8-4.4,6.6-4.5,12.7v226.4c0,12.5,10.2,22.7,22.7,22.7h110.9v19c0,12.5,10.2,22.7,22.7,22.7h167.3l36.4,21
			c10.8,6.2,24.6,2.6,30.9-8.2l41-70.2c0.1-0.2,0.2-0.5,0.4-0.7c3.4-6.7,6.3-13.4,8.9-20.6c1.6-4.3,2.9-8.7,4.1-12.8
			c1.3-4.5,2.4-8.6,3.5-13.8c1-4.7,2-10.2,2.9-16.4c1.1-7.4,2.1-15.6,2.7-23.1c0.4-4.7,0.5-9.3,0.6-13.6c0,0,0,0,0,0V41.7
			c0-3.1-2.5-5.7-5.7-5.7h-12.8C976.4,36,973.9,38.6,973.9,41.7z"/>
	</g>
</g>
<g>
	<g id="CIRCLE_00000056421233685071611450000002151675873344404617_">
		<circle class="st0" cx="137.2" cy="671.6" r="5.2"/>
	</g>
	<g id="CIRCLE_00000065766923438421595750000004020302047725366146_">
		<circle class="st0" cx="137.2" cy="563.9" r="5.2"/>
	</g>
	<g id="ARC_00000150797249672372640180000016345358616460647843_">
		<path class="st0" d="M144.3,551.1c3.1,0,5.7,2.5,5.7,5.7v119.1c0,3.1-2.5,5.7-5.7,5.7H49.8c-3.1,0-5.7-2.5-5.7-5.7v-1.4
			c0-3.1,2.5-5.7,5.7-5.7h70.3c3.1,0,5.7-2.5,5.7-5.7V556.8c0-3.1,2.5-5.7,5.7-5.7H144.3z"/>
	</g>
</g>
<g>
	<g id="CIRCLE_00000117675399208953707300000003663509189778535074_">
		<circle class="st0" cx="304.9" cy="713" r="5.2"/>
	</g>
	<g id="CIRCLE_00000004504989055111197240000010045133409174913950_">
		<circle class="st0" cx="304.9" cy="605.3" r="5.2"/>
	</g>
	<g id="ARC_00000103259611046023346310000007355668187166642840_">
		<path class="st0" d="M311.9,592.6c3.1,0,5.7,2.5,5.7,5.7v119.1c0,3.1-2.5,5.7-5.7,5.7h-94.4c-3.1,0-5.7-2.5-5.7-5.7v-1.4
			c0-3.1,2.5-5.7,5.7-5.7h70.3c3.1,0,5.7-2.5,5.7-5.7V598.3c0-3.1,2.5-5.7,5.7-5.7H311.9z"/>
	</g>
</g>
<g>
	<g id="CIRCLE_00000096748177070439757390000003227053937916684455_">
		<circle class="st0" cx="56.9" cy="538" r="5.2"/>
	</g>
	<g id="CIRCLE_00000170958863813772742100000007684797436134107047_">
		<circle class="st0" cx="56.9" cy="645.7" r="5.2"/>
	</g>
	<g id="ARC_00000160153093759453035790000008787829441956861618_">
		<path class="st0" d="M49.8,658.4c-3.1,0-5.7-2.5-5.7-5.7V533.7c0-3.1,2.5-5.7,5.7-5.7h94.4c3.1,0,5.7,2.5,5.7,5.7v1.4
			c0,3.1-2.5,5.7-5.7,5.7H73.9c-3.1,0-5.7,2.5-5.7,5.7v106.3c0,3.1-2.5,5.7-5.7,5.7H49.8z"/>
	</g>
</g>
<g>
	<g id="CIRCLE_00000110453113869604187760000015910553021889664427_">
		<circle class="st0" cx="270.2" cy="690.9" r="3.5"/>
	</g>
	<g id="CIRCLE_00000183231467441773378660000012322810591369987221_">
		<circle class="st0" cx="270.2" cy="583.2" r="3.5"/>
	</g>
	<g id="ARC_00000177475666961167973350000011254640130467056297_">
		<path class="st0" d="M264.5,570.5h-81.7c-3.1,0-5.7,2.5-5.7,5.7v119.1c0,3.1,2.5,5.7,5.7,5.7h94.4c3.1,0,5.7-2.5,5.7-5.7V576.1
			c0-3.1-2.5-5.7-5.7-5.7H264.5z"/>
	</g>
</g>
<g>
	<g id="CIRCLE_00000048481045569614592090000006512796198098365868_">
		<circle class="st0" cx="554.5" cy="463" r="5.2"/>
	</g>
	<g id="CIRCLE_00000150092397708541564860000007836683756360781959_">
		<circle class="st0" cx="876.9" cy="442" r="5.2"/>
	</g>
	<g id="CIRCLE_00000166652421511391113350000007398182291507294595_">
		<circle class="st0" cx="556.1" cy="701.9" r="5.2"/>
	</g>
	<g id="CIRCLE_00000040563903484543207100000002482166071743523470_">
		<circle class="st0" cx="914.3" cy="770.3" r="5.2"/>
	</g>
	<g id="CIRCLE_00000123407249641984144960000013726752123996063160_">
		<circle class="st0" cx="982.7" cy="573.8" r="5.2"/>
	</g>
	<g id="CIRCLE_00000027591126454447114240000017662895850905981113_">
		<circle class="st0" cx="982.7" cy="466.1" r="5.2"/>
	</g>
	<g id="LINE_00000157304763489486758360000007769684674923772340_">
		<path class="st0" d="M977,453.4h12.8c3.1,0,5.7,2.5,5.7,5.7v141.8c0,0,0,0,0,0c0,4.4-0.2,8.9-0.6,13.6c-0.6,7.5-1.5,15.6-2.7,23.1
			c-0.9,6.2-1.9,11.8-2.9,16.4c-1.1,5.2-2.2,9.4-3.5,13.8c-1.2,4.1-2.6,8.5-4.1,12.8c-2.6,7.2-5.6,13.9-8.9,20.6
			c-0.1,0.2-0.2,0.5-0.4,0.7l-41,70.2c-6.3,10.8-20.1,14.4-30.9,8.2l-36.4-21H696.7c-12.5,0-22.7-10.2-22.7-22.7v-19H563.1
			c-12.5,0-22.7-10.2-22.7-22.7V468.5c0.1-6.2,2.3-10,4.5-12.7s4.7-4.4,8.3-6.4c3.6-2,8.4-4.3,13.4-6.1c5-1.8,10.3-3.1,17.2-4.3
			c6.9-1.3,15.4-2.5,23.5-3.5c8.1-1,15.7-1.7,23.6-2.3c8-0.7,16.3-1.3,24.7-1.8s16.8-0.9,23.7-1.1c6.9-0.2,12.3-0.4,15-0.5
			c2.7-0.1,2.7-0.1,2.7-0.1s0,0,0,0l33.5-0.4H884c3.1,0,5.7,2.5,5.7,5.7v12.8c0,3.1-2.5,5.7-5.7,5.7H730.9l-33.3,0.4c0,0,0,0,0,0
			c-5.4,0.1-10.9,0.2-16.6,0.4c-12.5,0.4-25.8,1.1-37.5,1.9c-8.3,0.6-15.9,1.2-23.8,2c-7,0.7-14.3,1.5-20.9,2.5
			c-6.1,0.9-11.5,1.9-16.3,2.9c-4.3,0.9-8.4,1.9-11.7,3.3c-3,1.3-5.3,3-6.2,5.5c0,0.1-0.1,0.1-0.1,0.2v215.2c0,3.1,2.5,5.7,5.7,5.7
			h119.4c4.7,0,8.5,3.8,8.5,8.5v27.6c0,3.1,2.5,5.7,5.7,5.7h166.7l37.7,21.8l0.3,0.2c1.5,0.9,3.4,0.4,4.3-1.1l0.3-0.6l38-65
			c0,0,0,0,0,0c3.2-6.4,5.9-12.6,8.3-19.4c1.5-4.3,2.8-8.7,4-12.8c1-3.5,1.8-6.8,2.7-11.1c0.8-4.1,1.7-9.2,2.5-14.8
			c0.9-6.5,1.7-13.3,2.2-19.5c0.3-4.3,0.5-8.3,0.5-12c0,0,0,0,0,0V459C971.3,455.9,973.9,453.4,977,453.4z"/>
	</g>
</g>
<g>
	<g id="CIRCLE_00000181786790265688275500000017317372629829432241_">
		<circle class="st0" cx="437.8" cy="768.3" r="3.5"/>
	</g>
	<g id="CIRCLE_00000038378374728027519150000014224063964284419722_">
		<circle class="st0" cx="506.2" cy="464.1" r="3.5"/>
	</g>
	<g id="ARC_00000019659652491247419070000017098012643929150607_">
		<path class="st0" d="M454.8,770L454.8,770"/>
		<path class="st0" d="M424.9,773.4L424,775c-0.8,1.4-0.3,3.1,1,3.9c0.1,0.1,0.2,0.1,0.3,0.2l0.9,0.4c10.5,4.6,22.8,0.5,28.6-9.4
			l41-70.2c0.1-0.2,0.2-0.5,0.4-0.7c3.4-6.7,6.3-13.4,8.9-20.6c1.6-4.3,2.9-8.7,4.1-12.8c1.3-4.5,2.4-8.6,3.5-13.8
			c1-4.7,2-10.2,2.9-16.4c1.1-7.4,2.1-15.6,2.7-23.1c0.4-4.7,0.5-9.3,0.6-13.6c0,0,0,0,0,0V457c0-3.1-2.5-5.7-5.7-5.7h-12.8
			c-3.1,0-5.7,2.5-5.7,5.7v141.7c0,0,0,0,0,0c0,3.7-0.2,7.7-0.5,12c-0.5,6.2-1.3,13-2.2,19.5c-0.8,5.6-1.7,10.7-2.5,14.8
			c-0.9,4.3-1.7,7.6-2.7,11.1c-1.1,4.1-2.5,8.5-4,12.8c-2.4,6.8-5.1,13-8.3,19.4c0,0,0,0,0,0l-38,65L424.9,773.4"/>
	</g>
	<g id="CIRCLE_00000169531598965701026290000007650293515125754802_">
		<circle class="st0" cx="506.2" cy="571.8" r="3.5"/>
	</g>
</g>
<g>
	<g id="CIRCLE_00000079485553349792135100000017009008579805390223_">
		<circle class="st0" cx="896.2" cy="720.9" r="3.5"/>
	</g>
	<g id="CIRCLE_00000114043216519547323200000009863821566566374826_">
		<circle class="st0" cx="592" cy="652.6" r="3.5"/>
	</g>
	<g id="ARC_00000014604890994659550720000003577993462529879431_">
		<path class="st0" d="M898,703.9L898,703.9"/>
		<path class="st0" d="M901.3,733.8l1.5,0.9c1.4,0.8,3.1,0.3,3.9-1c0.1-0.1,0.1-0.2,0.2-0.3l0.4-0.9c4.6-10.5,0.5-22.8-9.4-28.6
			l-70.2-41c-0.2-0.1-0.5-0.2-0.7-0.4c-6.7-3.4-13.4-6.3-20.6-8.9c-4.3-1.6-8.7-2.9-12.8-4.1c-4.5-1.3-8.6-2.4-13.8-3.5
			c-4.7-1-10.2-2-16.4-2.9c-7.4-1.1-15.6-2.1-23.1-2.7c-4.7-0.4-9.3-0.5-13.6-0.6c0,0,0,0,0,0H584.9c-3.1,0-5.7,2.5-5.7,5.7v12.8
			c0,3.1,2.5,5.7,5.7,5.7h141.7c0,0,0,0,0,0c3.7,0,7.7,0.2,12,0.5c6.2,0.5,13,1.3,19.5,2.2c5.6,0.8,10.7,1.7,14.8,2.5
			c4.3,0.9,7.6,1.7,11.1,2.7c4.1,1.1,8.5,2.5,12.8,4c6.8,2.4,13,5.1,19.4,8.3c0,0,0,0,0,0l65,38L901.3,733.8"/>
	</g>
	<g id="CIRCLE_00000131329882803450866430000014966762014234556550_">
		<circle class="st0" cx="699.7" cy="652.6" r="3.5"/>
	</g>
</g>
<g>
	<g id="CIRCLE_00000036930356948638578080000004039823649226597804_">
		<circle class="st0" cx="896.2" cy="674" r="3.5"/>
	</g>
	<g id="CIRCLE_00000065760534497215236100000009010428591731388058_">
		<circle class="st0" cx="592" cy="605.6" r="3.5"/>
	</g>
	<g id="ARC_00000036943431804468922780000009468205730597118640_">
		<path class="st0" d="M898,656.9L898,656.9"/>
		<path class="st0" d="M901.3,686.8l1.5,0.9c1.4,0.8,3.1,0.3,3.9-1c0.1-0.1,0.1-0.2,0.2-0.3l0.4-0.9c4.6-10.5,0.5-22.8-9.4-28.6
			l-70.2-41c-0.2-0.1-0.5-0.2-0.7-0.4c-6.7-3.4-13.4-6.3-20.6-8.9c-4.3-1.6-8.7-2.9-12.8-4.1c-4.5-1.3-8.6-2.4-13.8-3.5
			c-4.7-1-10.2-2-16.4-2.9c-7.4-1.1-15.6-2.1-23.1-2.7c-4.7-0.4-9.3-0.5-13.6-0.6c0,0,0,0,0,0H584.9c-3.1,0-5.7,2.5-5.7,5.7v12.8
			c0,3.1,2.5,5.7,5.7,5.7h141.7c0,0,0,0,0,0c3.7,0,7.7,0.2,12,0.5c6.2,0.5,13,1.3,19.5,2.2c5.6,0.8,10.7,1.7,14.8,2.5
			c4.3,0.9,7.6,1.7,11.1,2.7c4.1,1.1,8.5,2.5,12.8,4c6.8,2.4,13,5.1,19.4,8.3c0,0,0,0,0,0l65,38L901.3,686.8"/>
	</g>
	<g id="CIRCLE_00000154401038388178197000000000685282373867357603_">
		<circle class="st0" cx="699.7" cy="605.6" r="3.5"/>
	</g>
</g>
<g>
	<g id="CIRCLE_00000115505841261820845700000010707773479067373997_">
		<circle class="st0" cx="896.2" cy="626.7" r="3.5"/>
	</g>
	<g id="CIRCLE_00000026128691177593107840000012527854876144134532_">
		<circle class="st0" cx="592" cy="558.3" r="3.5"/>
	</g>
	<g id="ARC_00000008138134951478232970000018335090071217070223_">
		<path class="st0" d="M898,609.7L898,609.7"/>
		<path class="st0" d="M901.3,639.6l1.5,0.9c1.4,0.8,3.1,0.3,3.9-1c0.1-0.1,0.1-0.2,0.2-0.3l0.4-0.9c4.6-10.5,0.5-22.8-9.4-28.6
			l-70.2-41c-0.2-0.1-0.5-0.2-0.7-0.4c-6.7-3.4-13.4-6.3-20.6-8.9c-4.3-1.6-8.7-2.9-12.8-4.1c-4.5-1.3-8.6-2.4-13.8-3.5
			c-4.7-1-10.2-2-16.4-2.9c-7.4-1.1-15.6-2.1-23.1-2.7c-4.7-0.4-9.3-0.5-13.6-0.6c0,0,0,0,0,0H584.9c-3.1,0-5.7,2.5-5.7,5.7V564
			c0,3.1,2.5,5.7,5.7,5.7h141.7c0,0,0,0,0,0c3.7,0,7.7,0.2,12,0.5c6.2,0.5,13,1.3,19.5,2.2c5.6,0.8,10.7,1.7,14.8,2.5
			c4.3,0.9,7.6,1.7,11.1,2.7c4.1,1.1,8.5,2.5,12.8,4c6.8,2.4,13,5.1,19.4,8.3c0,0,0,0,0,0l65,38L901.3,639.6"/>
	</g>
	<g id="CIRCLE_00000098932704039747291150000015601977571992339894_">
		<circle class="st0" cx="699.7" cy="558.3" r="3.5"/>
	</g>
</g>
</svg>
